<?xml version="1.0" encoding="UTF-8" standalone="no"?>
<!-- Created with Inkscape (http://www.inkscape.org/) -->

<svg
   width="512"
   height="512"
   viewBox="0 0 512 512"
   version="1.1"
   id="svg5"
   sodipodi:docname="icon.svg"
   inkscape:version="1.2 (dc2aedaf03, 2022-05-15)"
   inkscape:export-filename="..\Bots\arts\images\logoA256.png"
   inkscape:export-xdpi="48"
   inkscape:export-ydpi="48"
   xmlns:inkscape="http://www.inkscape.org/namespaces/inkscape"
   xmlns:sodipodi="http://sodipodi.sourceforge.net/DTD/sodipodi-0.dtd"
   xmlns:xlink="http://www.w3.org/1999/xlink"
   xmlns="http://www.w3.org/2000/svg"
   xmlns:svg="http://www.w3.org/2000/svg">
  <sodipodi:namedview
     id="namedview7"
     pagecolor="#505050"
     bordercolor="#ffffff"
     borderopacity="1"
     inkscape:showpageshadow="0"
     inkscape:pageopacity="0"
     inkscape:pagecheckerboard="1"
     inkscape:deskcolor="#505050"
     inkscape:document-units="px"
     showgrid="false"
     inkscape:zoom="0.26123047"
     inkscape:cx="-401.94392"
     inkscape:cy="394.28784"
     inkscape:window-width="1366"
     inkscape:window-height="715"
     inkscape:window-x="-8"
     inkscape:window-y="-8"
     inkscape:window-maximized="1"
     inkscape:current-layer="layer1" />
  <defs
     id="defs2">
    <linearGradient
       inkscape:collect="always"
       id="linearGradient2010">
      <stop
         style="stop-color:#3366cc;stop-opacity:1;"
         offset="0.31546465"
         id="stop2008" />
      <stop
         style="stop-color:#000037;stop-opacity:1;"
         offset="1"
         id="stop2006" />
    </linearGradient>
    <linearGradient
       inkscape:collect="always"
       id="linearGradient2000">
      <stop
         style="stop-color:#3366cc;stop-opacity:1;"
         offset="0"
         id="stop1998" />
      <stop
         style="stop-color:#8aa7e2;stop-opacity:1;"
         offset="1"
         id="stop1996" />
    </linearGradient>
    <linearGradient
       inkscape:collect="always"
       id="linearGradient1298">
      <stop
         style="stop-color:#000000;stop-opacity:1;"
         offset="0"
         id="stop1294" />
      <stop
         style="stop-color:#000000;stop-opacity:0;"
         offset="1"
         id="stop1296" />
    </linearGradient>
    <linearGradient
       inkscape:collect="always"
       id="linearGradient1263">
      <stop
         style="stop-color:#ffffff;stop-opacity:1;"
         offset="0.07782101"
         id="stop1259" />
      <stop
         style="stop-color:#ffffff;stop-opacity:0;"
         offset="1"
         id="stop1261" />
    </linearGradient>
    <inkscape:path-effect
       effect="lattice2"
       gridpoint0="124.41122,82.302803"
       gridpoint1="330.65741,142.52981"
       gridpoint2="124.41122,453.62241"
       gridpoint3="346.58991,446.88351"
       gridpoint4="188.66103,50.497537"
       gridpoint5="335.43178,63.354985"
       gridpoint6="194.7514,471.21682"
       gridpoint7="324.60446,489.48793"
       gridpoint8x9="269.15184,63.354985"
       gridpoint10x11="265.09159,453.62241"
       gridpoint12="79.748506,173.77929"
       gridpoint13="368.55303,209.6448"
       gridpoint14="89.222411,372.97325"
       gridpoint15="434.19369,356.73226"
       gridpoint16="194.7514,175.13271"
       gridpoint17="385.50815,156.18488"
       gridpoint18="194.7514,360.79251"
       gridpoint19="368.21398,395.40904"
       gridpoint20x21="346.29653,163.62867"
       gridpoint22x23="265.09159,360.79251"
       gridpoint24x26="86.515587,272.24099"
       gridpoint25x27="450.50269,274.06123"
       gridpoint28x30="194.7514,267.96261"
       gridpoint29x31="397.94927,297.6299"
       gridpoint32x33x34x35="265.09159,267.96261"
       id="path-effect448"
       is_visible="true"
       lpeversion="1"
       horizontal_mirror="false"
       vertical_mirror="false"
       perimetral="false"
       live_update="true" />
    <radialGradient
       inkscape:collect="always"
       xlink:href="#linearGradient1263"
       id="radialGradient1267"
       cx="214.8757"
       cy="201.34155"
       fx="214.8757"
       fy="201.34155"
       r="52.405563"
       gradientTransform="matrix(1.0918253,0,0,1.0918253,-23.323636,-23.507335)"
       gradientUnits="userSpaceOnUse" />
    <radialGradient
       inkscape:collect="always"
       xlink:href="#linearGradient1298"
       id="radialGradient1300"
       cx="214.8757"
       cy="201.34155"
       fx="214.8757"
       fy="201.34155"
       r="52.405564"
       gradientTransform="matrix(1.0918253,0,0,1.0918253,-23.323636,-23.507335)"
       gradientUnits="userSpaceOnUse" />
    <linearGradient
       inkscape:collect="always"
       xlink:href="#linearGradient2000"
       id="linearGradient2002"
       x1="97.50345"
       y1="256"
       x2="369.83366"
       y2="256"
       gradientUnits="userSpaceOnUse"
       gradientTransform="matrix(1.0664797,0,0,1.0728294,-19.051773,-18.644313)" />
    <linearGradient
       inkscape:collect="always"
       xlink:href="#linearGradient2010"
       id="linearGradient2012"
       x1="74.437859"
       y1="246.32164"
       x2="500.76376"
       y2="246.32164"
       gradientUnits="userSpaceOnUse"
       gradientTransform="matrix(1.0918253,0,0,1.0918253,-23.323636,-23.507287)" />
    <linearGradient
       inkscape:collect="always"
       xlink:href="#linearGradient2000"
       id="linearGradient8765"
       gradientUnits="userSpaceOnUse"
       gradientTransform="matrix(0.68918167,0,0,0.68918167,-390.91628,389.49635)"
       x1="97.50345"
       y1="256"
       x2="369.83366"
       y2="256" />
  </defs>
  <g
     inkscape:label="Layer 1"
     inkscape:groupmode="layer"
     id="layer1">
    <rect
       style="fill:#182448;fill-opacity:1;stroke:none;stroke-width:8;stroke-linecap:round;stroke-linejoin:round;stroke-dasharray:none;stroke-opacity:1;paint-order:markers stroke fill"
       id="rect2304"
       width="512"
       height="512"
       x="596.33563"
       y="0"
       ry="17.857193" />
    <path
       id="path1160"
       style="fill:#cc0000;stroke:none;stroke-width:4;stroke-linecap:round;stroke-linejoin:round;stroke-dasharray:none;stroke-opacity:1;paint-order:markers stroke fill"
       d="M -0.17244979,914.49627 C 24.76284,885.5954 60.85219,879.00724 108.70266,879.00724 c 47.85047,0 80.11517,37.72473 92.61419,74.58214 12.49902,36.8574 -3.97054,82.06462 -1.07311,92.87802 2.89743,10.8133 38.73466,50.1397 56.91147,79.9243 18.17682,29.7847 16.3571,83.2001 16.3571,83.2001 0,0 -5.16894,80.4756 -31.12856,108.5103 -25.95962,28.0347 -65.69359,40.6025 -113.54405,40.6025 -47.85047,0 -131.6028798,-23.0081 -131.6028798,-23.0081 0,0 -33.8353902,-141.0862 -33.8353902,-206.4818 0,-65.3957 -10.996941,-159.75345 36.42612021,-214.71843 z"
       sodipodi:nodetypes="azzzzczzcza" />
    <path
       id="path1162"
       style="fill:url(#linearGradient2012);fill-opacity:1;stroke:none;stroke-width:8.7346;stroke-linecap:round;stroke-linejoin:round;stroke-dasharray:none;stroke-opacity:1;paint-order:markers fill stroke"
       d="m 115.57658,52.880845 c 0,0 66.06868,-42.853108 118.31303,-42.853108 52.24436,0 115.03925,41.997946 130.13458,76.840056 15.09534,34.842117 -13.38341,55.804257 -5.91077,88.129077 7.47265,32.32482 46.14323,64.07355 57.63004,92.41362 11.48682,28.34006 8.86616,87.78852 8.86616,87.78852 0,0 -4.16588,71.83349 -32.50925,102.44245 -28.34337,30.60896 -71.72593,44.33081 -123.97027,44.33081 -52.24436,0 -152.55352,-20.68771 -152.55352,-20.68771 0,0 -28.076177,-158.47454 -28.076177,-229.87516 0,-71.40062 28.076177,-198.528555 28.076177,-198.528555 z"
       sodipodi:nodetypes="czzzzczzczc" />
    <path
       id="path551"
       style="fill:#ffcc00;stroke-width:8;stroke-linecap:round;stroke-linejoin:round;paint-order:markers fill stroke"
       d="m -606.9969,69.963692 c 0,0 60.51213,-39.249051 108.3626,-39.249051 47.85047,0 105.36415,38.46581 119.18992,70.377619 13.82578,31.91179 -12.25783,51.11096 -5.41366,80.71718 6.84418,29.60622 42.26247,58.6848 52.78321,84.6414 10.52074,25.95659 8.12049,80.40528 8.12049,80.40528 0,0 -3.81552,65.7921 -29.77514,93.82677 -25.95962,28.03467 -65.69359,40.60247 -113.54405,40.60247 -47.85047,0 -139.72337,-18.94782 -139.72337,-18.94782 0,0 -25.7149,-145.14642 -25.7149,-210.54206 0,-65.39564 25.7149,-181.831788 25.7149,-181.831788 z"
       sodipodi:nodetypes="czzzzczzczc" />
    <path
       id="path1172"
       style="fill:none;stroke:url(#linearGradient2002);stroke-width:7.92856;stroke-linecap:round;stroke-linejoin:round;stroke-dasharray:none;stroke-opacity:1;paint-order:markers fill stroke"
       d="m 112.39877,56.154479 c 0,0 55.32961,-42.162459 99.08197,-42.162459 43.75238,0 96.34036,41.32107 108.98204,75.601631 12.64168,34.280549 -11.20801,54.904849 -4.95002,86.708709 6.25802,31.80385 38.64294,63.04088 48.26265,90.92422 9.61969,27.88331 7.42502,86.37366 7.42502,86.37366 0,0 -3.48875,70.67578 -27.22508,100.7914 -23.73634,30.11562 -60.06735,43.61635 -103.81969,43.61635 -43.75236,0 -127.75689,-20.3543 -127.75689,-20.3543 0,0 -23.512584,-155.92047 -23.512584,-226.17028 0,-70.24989 23.512584,-195.328931 23.512584,-195.328931 z"
       sodipodi:nodetypes="czzzzczzczc" />
    <ellipse
       style="fill:url(#radialGradient1267);fill-opacity:1;stroke:url(#radialGradient1300);stroke-width:14.8966;stroke-linecap:round;stroke-linejoin:round;stroke-dasharray:none;stroke-opacity:1;paint-order:markers stroke fill"
       id="path1226"
       cx="211.2831"
       cy="196.32253"
       rx="49.769398"
       ry="49.769413" />
    <ellipse
       style="fill:#000000;fill-opacity:0.690205;stroke:none;stroke-width:5.6474;stroke-linecap:round;stroke-linejoin:round;stroke-dasharray:none;stroke-opacity:1;paint-order:markers stroke fill"
       id="ellipse1234"
       cx="211.2831"
       cy="196.32253"
       rx="18.867861"
       ry="18.867865" />
    <ellipse
       style="fill:#000000;fill-opacity:0.690205;stroke:none;stroke-width:4.39641;stroke-linecap:round;stroke-linejoin:round;stroke-dasharray:none;stroke-opacity:1;paint-order:markers stroke fill"
       id="ellipse1269"
       cx="211.2831"
       cy="196.32253"
       rx="14.688313"
       ry="14.688316" />
    <rect
       style="fill:#4a70ff;fill-opacity:1;stroke:none;stroke-width:6.79758;stroke-linecap:round;stroke-linejoin:round;stroke-dasharray:none;stroke-opacity:1;paint-order:markers stroke fill"
       id="rect1647"
       width="93.076668"
       height="13.299241"
       x="333.71689"
       y="-159.76558"
       transform="rotate(90)" />
    <rect
       style="fill:#4a70ff;fill-opacity:1;stroke:none;stroke-width:5.57554;stroke-linecap:round;stroke-linejoin:round;stroke-dasharray:none;stroke-opacity:1;paint-order:markers stroke fill"
       id="rect2140"
       width="62.618927"
       height="13.299241"
       x="348.94577"
       y="-205.71448"
       transform="rotate(90)" />
    <rect
       style="fill:#4a70ff;fill-opacity:1;stroke:none;stroke-width:6.44504;stroke-linecap:round;stroke-linejoin:round;stroke-dasharray:none;stroke-opacity:1;paint-order:markers stroke fill"
       id="rect2142"
       width="83.672684"
       height="13.299241"
       x="338.41888"
       y="-251.66339"
       transform="rotate(90)" />
    <rect
       style="fill:#4a70ff;fill-opacity:1;stroke:none;stroke-width:5.2398;stroke-linecap:round;stroke-linejoin:round;stroke-dasharray:none;stroke-opacity:1;paint-order:markers stroke fill"
       id="rect2144"
       width="55.304718"
       height="13.299241"
       x="352.60287"
       y="-181.68208"
       transform="rotate(90)" />
    <rect
       style="fill:#4a70ff;fill-opacity:1;stroke:none;stroke-width:4.55106;stroke-linecap:round;stroke-linejoin:round;stroke-dasharray:none;stroke-opacity:1;paint-order:markers stroke fill"
       id="rect2146"
       width="41.721188"
       height="13.299241"
       x="359.39465"
       y="-229.74689"
       transform="rotate(90)" />
    <rect
       style="fill:#4a70ff;fill-opacity:1;stroke:none;stroke-width:5.62875;stroke-linecap:round;stroke-linejoin:round;stroke-dasharray:none;stroke-opacity:1;paint-order:markers stroke fill"
       id="rect2148"
       width="63.819832"
       height="13.299241"
       x="348.34531"
       y="-275.7645"
       transform="rotate(90)" />
    <path
       id="path8763"
       style="fill:#3366cc;stroke:url(#linearGradient8765);stroke-width:5.10844;stroke-linecap:round;stroke-linejoin:round;stroke-dasharray:none;stroke-opacity:1;paint-order:markers fill stroke"
       d="m -305.97016,437.54682 c 0,0 35.75517,-27.08501 64.02888,-27.08501 28.2737,0 62.25717,26.54451 70.42649,48.56622 8.16932,22.02171 -7.24286,35.27068 -3.1988,55.70137 4.04406,20.43067 24.97188,40.49724 31.18833,58.40938 6.21645,17.91215 4.79821,55.48613 4.79821,55.48613 0,0 -2.2545,45.40185 -17.59342,64.74803 -15.33892,19.34618 -38.81678,28.01897 -67.09048,28.01897 -28.2737,0 -82.55921,-13.07552 -82.55921,-13.07552 0,0 -15.19432,-100.16273 -15.19432,-145.29098 0,-45.12827 15.19432,-125.47859 15.19432,-125.47859 z"
       sodipodi:nodetypes="czzzzczzczc" />
  </g>
</svg>
